{"title":"Siamo Amiche... del Cazzo! - Friends ... We are fucking!","uid":6716433,"size":1059298646,"categoryP":"porn","categoryS":"movies","magnet":"?xt=urn:btih:0cec4a0a63f094bd80cda104cbf2b1c22f5a0bf7&amp;dn=Siamo+Amiche...+del+Cazzo%21+-+Friends+...+We+are+fucking%21&amp;tr=udp%3A%2F%2Ftracker.openbittorrent.com%3A80&amp;tr=udp%3A%2F%2Fopen.demonii.com%3A1337&amp;tr=udp%3A%2F%2Ftracker.coppersurfer.tk%3A6969&amp;tr=udp%3A%2F%2Fexodus.desync.com%3A6969","seeders":3,"leechers":0,"uploader":"silviuss","files":1,"time":1317577550,"description":"Siamo Amiche... del Cazzo! - Friends ... We are fucking!\n\nCover: &lt;a href=&quot;\nhttp://imagebb.org/view.php?filename=822ds33d335lo.jpg&quot; rel=&quot;nofollow&quot; target=&quot;_NEW&quot;&gt;\nhttp://imagebb.org/view.php?filename=822ds33d335lo.jpg&lt;/a&gt;\n\nPreview: &lt;a href=&quot;\nhttp://imagebb.org/view.php?filename=985Siamo_Amiche...del_Caz.jpg&quot; rel=&quot;nofollow&quot; target=&quot;_NEW&quot;&gt;\nhttp://imagebb.org/view.php?filename=985Siamo_Amiche...del_Caz.jpg&lt;/a&gt;\n\nInfo:\nFormat                           : AVI\nFormat/Info                      : Audio Video Interleave\nFile size                        : 1 010 MiB\nDuration                         : 1h 26mn\nOverall bit rate                 : 1 639 Kbps\nWriting library                  : VirtualDub build 32817/release\n\nVideo\nID                               : 0\nFormat                           : MPEG-4 Visual\nFormat settings, BVOP            : 1\nFormat settings, QPel            : No\nFormat settings, GMC             : No warppoints\nFormat settings, Matrix          : Default (H.263)\nMuxing mode                      : Packed bitstream\nCodec ID                         : DX50\nCodec ID/Hint                    : DivX 5\nDuration                         : 1h 26mn\nBit rate                         : 1 501 Kbps\nWidth                            : 720 pixels\nHeight                           : 576 pixels\nDisplay aspect ratio             : 4:3\nFrame rate                       : 25.000 fps\nStandard                         : PAL\nColor space                      : YUV\nChroma subsampling               : 4:2:0\nBit depth                        : 8 bits\nScan type                        : Progressive\nCompression mode                 : Lossy\nBits/(Pixel*Frame)               : 0.145\nStream size                      : 925 MiB (92%)\nWriting library                  : DivX 6.6.1.4\n\nAudio\nID                               : 1\nFormat                           : MPEG Audio\nFormat version                   : Version 1\nFormat profile                   : Layer 3\nCodec ID                         : 55\nCodec ID/Hint                    : MP3\nDuration                         : 1h 26mn\nBit rate mode                    : Constant\nBit rate                         : 128 Kbps\nChannel(s)                       : 2 channels\nSampling rate                    : 48.0 KHz\nCompression mode                 : Lossy\nStream size                      : 78.9 MiB (8%)\nAlignment                        : Split accross interleaves\nInterleave, duration             : 40 ms (1.00 video frame)\nInterleave, preload duration     : 500 ms\n\n\n\n\n","torrent":{"xt":"urn:btih:0cec4a0a63f094bd80cda104cbf2b1c22f5a0bf7","amp;dn":"Siamo+Amiche...+del+Cazzo%21+-+Friends+...+We+are+fucking%21","amp;tr":["udp%3A%2F%2Ftracker.openbittorrent.com%3A80","udp%3A%2F%2Fopen.demonii.com%3A1337","udp%3A%2F%2Ftracker.coppersurfer.tk%3A6969","udp%3A%2F%2Fexodus.desync.com%3A6969"],"infoHash":"0cec4a0a63f094bd80cda104cbf2b1c22f5a0bf7","infoHashBuffer":{"type":"Buffer","data":[12,236,74,10,99,240,148,189,128,205,161,4,203,242,177,194,47,90,11,247]},"announce":[],"urlList":[]}}